{
  "asset": {
    "version": "2.0",
    "generator": "Somnium original CC0 animation fixture"
  },
  "scene": 0,
  "scenes": [
    {
      "nodes": [
        0,
        2
      ]
    }
  ],
  "nodes": [
    {
      "name": "root",
      "children": [
        1
      ]
    },
    {
      "name": "tip",
      "translation": [
        0,
        1,
        0
      ]
    },
    {
      "name": "Preview",
      "mesh": 0,
      "skin": 0
    }
  ],
  "skins": [
    {
      "joints": [
        0,
        1
      ],
      "skeleton": 0,
      "inverseBindMatrices": 6
    }
  ],
  "meshes": [
    {
      "primitives": [
        {
          "attributes": {
            "POSITION": 0,
            "NORMAL": 1,
            "TEXCOORD_0": 2,
            "JOINTS_0": 3,
            "WEIGHTS_0": 4
          },
          "indices": 5,
          "material": 0
        }
      ]
    }
  ],
  "materials": [
    {
      "name": "Preview Amber",
      "pbrMetallicRoughness": {
        "baseColorFactor": [
          0.9,
          0.25,
          0.035,
          1
        ],
        "metallicFactor": 0.15,
        "roughnessFactor": 0.5
      }
    }
  ],
  "animations": [
    {
      "name": "Bend",
      "samplers": [
        {
          "input": 7,
          "output": 8,
          "interpolation": "LINEAR"
        }
      ],
      "channels": [
        {
          "sampler": 0,
          "target": {
            "node": 1,
            "path": "rotation"
          }
        }
      ]
    }
  ],
  "bufferViews": [
    {
      "buffer": 0,
      "byteOffset": 0,
      "byteLength": 3024
    },
    {
      "buffer": 0,
      "byteOffset": 3024,
      "byteLength": 3024
    },
    {
      "buffer": 0,
      "byteOffset": 6048,
      "byteLength": 2016
    },
    {
      "buffer": 0,
      "byteOffset": 8064,
      "byteLength": 2016
    },
    {
      "buffer": 0,
      "byteOffset": 10080,
      "byteLength": 4032
    },
    {
      "buffer": 0,
      "byteOffset": 14112,
      "byteLength": 5760
    },
    {
      "buffer": 0,
      "byteOffset": 19872,
      "byteLength": 128
    },
    {
      "buffer": 0,
      "byteOffset": 20000,
      "byteLength": 16
    },
    {
      "buffer": 0,
      "byteOffset": 20016,
      "byteLength": 64
    }
  ],
  "accessors": [
    {
      "bufferView": 0,
      "componentType": 5126,
      "count": 252,
      "type": "VEC3",
      "min": [
        -0.18,
        0,
        -0.18
      ],
      "max": [
        0.18,
        2,
        0.18
      ]
    },
    {
      "bufferView": 1,
      "componentType": 5126,
      "count": 252,
      "type": "VEC3"
    },
    {
      "bufferView": 2,
      "componentType": 5126,
      "count": 252,
      "type": "VEC2"
    },
    {
      "bufferView": 3,
      "componentType": 5123,
      "count": 252,
      "type": "VEC4"
    },
    {
      "bufferView": 4,
      "componentType": 5126,
      "count": 252,
      "type": "VEC4"
    },
    {
      "bufferView": 5,
      "componentType": 5125,
      "count": 1440,
      "type": "SCALAR"
    },
    {
      "bufferView": 6,
      "componentType": 5126,
      "count": 2,
      "type": "MAT4"
    },
    {
      "bufferView": 7,
      "componentType": 5126,
      "count": 4,
      "type": "SCALAR",
      "min": [
        0
      ],
      "max": [
        3
      ]
    },
    {
      "bufferView": 8,
      "componentType": 5126,
      "count": 4,
      "type": "VEC4"
    }
  ],
  "buffers": [
    {
      "byteLength": 20080,
      "uri": "data:application/octet-stream;base64,"
    }
  ]
}
